# xmcd
#
# Track frame offsets:
#	150
#	33711
#	65002
#	75783
#	91355
#	97325
#	105172
#	108699
#	124576
#	138346
#	147001
#	157904
#	162189
#	165849
#	194640
#	199590
#	226168
#	231328
#	254000
#	262103
#	278510
#	306523
#	324195
#	340891
#	357013
#
# Disc length: 4787 seconds
#
# Revision: 0
# Processed by: cddbd v1.5.2PL0 Copyright (c) Steve Scherf et al.
# Submitted via: EZCDAudioConverter 1.3.4.1
#
DISCID=5c12b119
DTITLE=Beach Boys - The Smile Sessions
DYEAR=2011
DGENRE=
TTITLE0=Good Vibrations - Gold Star [Pet Sounds Session]
TTITLE1=Good Vibrations - Gold Star
TTITLE2=Good Vibrations - Western [First Chorus]
TTITLE3=Good Vibrations - Western [Second Chorus and Fade]
TTITLE4=Good Vibrations - Sunset Sound Part 1
TTITLE5=Good Vibrations - Sunset Sound Part 2 and 3
TTITLE6=Good Vibrations - Sunset Sound Part 4
TTITLE7=Good Vibrations - Western Part C
TTITLE8=Good Vibrations - Western [Chorus]
TTITLE9=Good Vibrations - Western [Fade Sequence]
TTITLE10=Good Vibrations (Inspiration) - Western Part 1
TTITLE11=Good Vibrations (Inspiration) - Western Part 3
TTITLE12=Good Vibrations (Inspiration) - Western Part 4
TTITLE13=Good Vibrations - Western Part 1
TTITLE14=Good Vibrations - Western Part 2 and Verse
TTITLE15=Good Vibrations - Western Part 2 Continued
TTITLE16=Good Vibrations - Western Part 1
TTITLE17=Good Vibrations - Western Part 2
TTITLE18=Good Vibrations (Persuasion) - Western
TTITLE19=Good Vibrations - Western [New Bridge]
TTITLE20=Good Vibrations - Session Masters
TTITLE21=Good Vibrations [Stereo Single]
TTITLE22=Good Good Good Vibrations [First Version With Overdubs]
TTITLE23=Good Vibrations [Alternate Edit]
TTITLE24=Good Vibrations - Tape Rewind
EXTD=
EXTT0=
EXTT1=
EXTT2=
EXTT3=
EXTT4=
EXTT5=
EXTT6=
EXTT7=
EXTT8=
EXTT9=
EXTT10=
EXTT11=
EXTT12=
EXTT13=
EXTT14=
EXTT15=
EXTT16=
EXTT17=
EXTT18=
EXTT19=
EXTT20=
EXTT21=
EXTT22=
EXTT23=
EXTT24=
PLAYORDER=
